<svg width="384" height="512" xmlns="http://www.w3.org/2000/svg" class="svg-inline--fa fa-burn fa-w-12">

 <g>
  <title>background</title>
  <rect fill="none" id="canvas_background" height="402" width="582" y="-1" x="-1"/>
 </g>
 <g>
  <title>Layer 1</title>
  <path id="svg_1" d="m192,0c-112.3,101.3 -192,220.9 -192,300.5c0,124.5 79,211.5 192,211.5s192,-87 192,-211.5c0,-79.9 -80.2,-199.6 -192,-300.5zm0,448c-56.5,0 -96,-39 -96,-94.8c0,-13.5 4.6,-61.5 96,-161.2c91.4,99.7 96,147.7 96,161.2c0,55.8 -39.5,94.8 -96,94.8z" fill="#d64848"/>
  <path d="m61.541656,50.151428c0.793056,0.79306 3.965294,0.79306 9.516716,0.79306c10.309776,0 20.013832,-1.660942 28.550148,3.172237c0.975975,0.552589 1.105644,1.601559 0.79306,4.758362c-0.398468,4.024147 -3.723938,8.90424 -7.930595,14.275074c-4.508484,5.756195 -8.617287,10.475441 -13.482018,13.482018c-5.438934,3.36145 -8.723656,4.758354 -10.309776,4.758354c-0.79306,0 -2.298332,-1.618156 -1.586121,-9.516716c0.79628,-8.830849 8.752907,-17.186234 23.791794,-21.412613c17.70887,-4.976723 42.302773,-4.684753 66.617027,7.930595c11.716034,6.078812 16.890152,15.038063 16.654251,24.584854c-0.296463,11.997513 -6.602051,26.69236 -16.654251,36.480759c-6.039871,5.881363 -9.516724,7.930588 -11.102844,7.930588l-2.379181,-1.586121" id="svg_2" fill-opacity="null" stroke-opacity="null" stroke-width="null" stroke="null" fill="none"/>
 </g>
</svg>